<?xml version="1.0" encoding="utf-8"?>
<!-- Generator: Adobe Illustrator 26.0.2, SVG Export Plug-In . SVG Version: 6.00 Build 0)  -->
<svg version="1.1" id="Layer_1" xmlns:svgjs="http://svgjs.com/svgjs"
	 xmlns="http://www.w3.org/2000/svg" xmlns:xlink="http://www.w3.org/1999/xlink" x="0px" y="0px" viewBox="0 0 1280 1024"
	 style="enable-background:new 0 0 1280 1024;" xml:space="preserve">
<style type="text/css">
	.st0{fill:#0B1C32;}
	.st1{opacity:0.2;fill:#1C4C7F;enable-background:new    ;}
</style>
<rect class="st0" width="1280" height="1024"/>
<path class="st1" d="M809.2,387.9l112.9,155.4l155.4-112.9L964.5,275L809.2,387.9z"/>
<path class="st1" d="M35.2,660.7l91.7,251.9l251.9-91.7L287.1,569L35.2,660.7z"/>
<path class="st1" d="M791.6,206.7L684.2,349.2l142.5,107.4l107.4-142.5L791.6,206.7z"/>
<path class="st1" d="M258.4,345.5l39-169l-208,130L258.4,345.5z"/>
<path class="st1" d="M1215.4,587.6c67.4-3.8,109-65.7,142-124.6c31.9-57,60.9-123.6,28.9-180.7c-32.4-58-104.5-73.4-171-73.2
	c-66.1,0.2-134.1,18.2-169.6,74c-37.8,59.5-37.2,135.8-2.9,197.4C1078.2,543.9,1143.1,591.7,1215.4,587.6"/>
<path class="st1" d="M665.3,592.3l-72.1,236l236,72.1l72.1-236L665.3,592.3z"/>
</svg>
